<svg width="81" height="81" viewBox="0 0 81 81" fill="none" xmlns="http://www.w3.org/2000/svg">
<path d="M54.6412 6.75H26.3587C14.0737 6.75 6.75 14.0737 6.75 26.3587V54.6075C6.75 66.9263 14.0737 74.25 26.3587 74.25H54.6075C66.8925 74.25 74.2162 66.9263 74.2162 54.6413V26.3587C74.25 14.0737 66.9262 6.75 54.6412 6.75ZM38.8125 58.2188C38.8125 59.4338 37.5975 60.2437 36.4837 59.7712C32.4 58.0162 27.0675 56.3962 23.355 55.9237L22.7137 55.8562C20.655 55.5862 18.9675 53.6625 18.9675 51.57V25.5825C18.9675 22.9837 21.06 21.06 23.625 21.2625C27.8437 21.6 34.0875 23.625 38.0025 25.8525C38.5425 26.1562 38.8125 26.73 38.8125 27.3038V58.2188ZM62.0325 51.5363C62.0325 53.6287 60.345 55.5525 58.2862 55.8225L57.5775 55.89C53.8987 56.3962 48.6 57.9825 44.5162 59.7038C43.4025 60.1763 42.1875 59.3662 42.1875 58.1512V27.27C42.1875 26.6625 42.4912 26.0887 43.0312 25.785C46.9462 23.5912 53.055 21.6338 57.2062 21.2625H57.3412C59.94 21.2625 62.0325 23.355 62.0325 25.9538V51.5363Z" fill="black"/>
</svg>
