<svg width="20" height="20" viewBox="0 0 20 20" fill="none" xmlns="http://www.w3.org/2000/svg">
<path d="M18.9769 1.01693C18.1069 0.146929 16.8769 -0.19307 15.6869 0.10693L5.88693 2.55693C4.23693 2.96693 2.96693 4.24693 2.55693 5.88693L0.10693 15.6969C-0.19307 16.8869 0.146929 18.1169 1.01693 18.9869C1.67693 19.6369 2.54693 19.9969 3.44693 19.9969C3.72693 19.9969 4.01693 19.9669 4.29693 19.8869L14.1069 17.4369C15.7469 17.0269 17.0269 15.7569 17.4369 14.1069L19.8869 4.29693C20.1869 3.10693 19.8469 1.87693 18.9769 1.01693ZM9.99689 13.8769C7.85693 13.8769 6.11693 12.1369 6.11693 9.99689C6.11693 7.85693 7.85693 6.11693 9.99689 6.11693C12.1369 6.11693 13.8769 7.85693 13.8769 9.99689C13.8769 12.1369 12.1369 13.8769 9.99689 13.8769Z" fill="white"/>
</svg>
