<svg width="53" height="43" viewBox="0 0 53 43" fill="none" xmlns="http://www.w3.org/2000/svg">
<path fill-rule="evenodd" clip-rule="evenodd" d="M19.1258 7.81235C21.6983 8.0528 24.6142 7.86191 27.2019 8.66039C32.989 10.4466 34.6463 15.9104 31.2483 20.8325C27.8475 25.7586 20.1445 27.9721 14.5367 25.6353C11.1993 24.2444 9.55122 21.6738 9.65484 18.0372C9.67288 17.4094 9.65717 16.7815 9.65717 15.8642C8.85148 16.4724 8.31008 17.0524 7.63479 17.3396C7.03169 17.5963 6.10317 17.8069 5.64386 17.5305C5.15835 17.2371 4.76482 16.3102 4.84166 15.7229C5.13157 13.4986 6.33952 11.7169 8.27806 10.4837C9.60303 9.6402 10.8575 10.3069 11.0048 11.8532C11.0473 12.3054 11.0112 12.7643 11.0112 13.3094C12.863 11.8419 14.6275 10.4438 16.764 8.75049C15.7091 8.94645 15.0624 9.21336 14.4587 9.14016C13.7956 9.06076 13.0342 8.79948 12.5935 8.35688C12.3874 8.15078 12.6622 7.16703 13.0173 6.82129C15.0368 4.85323 17.4969 3.71519 20.4041 3.76136C21.7605 3.78276 22.2111 4.81719 21.3117 5.84092C20.577 6.67995 19.6439 7.35511 19.1258 7.81235Z" fill="white"/>
<path fill-rule="evenodd" clip-rule="evenodd" d="M36.6402 20.8425C40.3787 20.8448 42.248 23.5939 40.5167 26.928C38.7562 30.3196 35.8484 32.4268 31.7781 32.5529C27.8294 32.6751 26.473 30.1777 27.7036 26.7225C28.8569 23.4846 33.1065 20.8408 36.6402 20.8425Z" fill="white"/>
<path fill-rule="evenodd" clip-rule="evenodd" d="M40.3576 18.7873C36.9841 18.7647 33.9779 15.7752 33.9866 12.4517C33.9924 9.99829 35.7767 8.18509 38.1699 8.20029C41.5108 8.22225 44.9658 11.584 44.949 14.7982C44.9362 17.2731 43.1705 18.8053 40.3576 18.7873Z" fill="white"/>
<path fill-rule="evenodd" clip-rule="evenodd" d="M18.1612 35.4851C16.5946 35.0651 14.9722 34.7779 13.4772 34.1883C11.9986 33.6049 10.9059 32.4528 10.9303 30.8012C10.9542 29.189 12.1004 28.2374 13.5826 27.7464C16.4764 26.7874 19.3749 26.8713 22.111 28.2098C23.6327 28.9548 24.8605 30.1182 24.4949 32.0113C24.1247 33.9338 22.4632 34.5622 20.7989 35.0245C19.9949 35.2481 19.1031 35.1771 18.2508 35.2402C18.2211 35.3218 18.1914 35.4029 18.1612 35.4851Z" fill="white"/>
<path fill-rule="evenodd" clip-rule="evenodd" d="M48.4373 22.6754C51.7975 22.6557 53.2802 24.9802 51.8504 27.6009C50.5854 29.9209 47.4168 31.3304 45.1831 30.5668C43.024 29.8286 42.2183 27.9957 43.2364 26.0079C44.3501 23.8349 46.2653 22.8365 48.4373 22.6754Z" fill="white"/>
<path fill-rule="evenodd" clip-rule="evenodd" d="M24.0226 42.5363C22.6808 42.172 21.6289 42.0385 20.7289 41.6094C18.7571 40.6685 18.6279 38.5427 20.4582 37.3473C22.6604 35.9091 25.1077 35.8049 27.5056 36.7109C29.581 37.4948 29.8563 39.7117 27.994 40.932C26.7861 41.7226 25.2579 42.056 24.0226 42.5363Z" fill="white"/>
<path fill-rule="evenodd" clip-rule="evenodd" d="M30.5352 8.37818C28.9692 7.89841 27.2094 7.57631 25.6673 6.8302C23.929 5.98891 24.0448 4.54229 25.7202 3.59515C27.8858 2.37152 33.0879 2.63561 35.0625 4.06985C36.5039 5.11554 36.4632 6.54583 34.8093 7.2576C33.5594 7.79536 32.1442 7.9733 30.5352 8.37818Z" fill="white"/>
<path fill-rule="evenodd" clip-rule="evenodd" d="M10.4837 25.1842C10.6135 26.7108 9.99233 27.9283 8.56375 28.5105C7.049 29.1271 5.77818 28.3483 4.85373 27.2475C3.66907 25.8363 2.89656 24.214 3.45251 22.3208C4.18485 19.8274 6.71951 19.0852 8.523 20.9863C9.56969 22.0888 10.1437 23.6115 10.9302 24.9444C10.7817 25.0243 10.6327 25.1043 10.4837 25.1842Z" fill="white"/>
<path fill-rule="evenodd" clip-rule="evenodd" d="M41.0097 1.88452C42.3475 2.52196 43.5438 2.87953 44.4339 3.59468C44.9666 4.02208 45.3916 5.13421 45.1837 5.70689C44.9712 6.29309 43.9065 6.97107 43.2493 6.93897C42.0856 6.88266 40.8077 6.52114 39.8495 5.89666C39.1818 5.46194 38.4827 4.22986 38.6788 3.6172C38.9035 2.9167 40.1033 2.50957 41.0097 1.88452Z" fill="white"/>
<path fill-rule="evenodd" clip-rule="evenodd" d="M6.74654 32.6679C6.18477 33.4383 5.80812 34.5008 5.16893 34.6771C4.54021 34.85 3.40794 34.3133 2.92942 33.7463C2.31933 33.0227 1.867 31.9556 1.86817 31.0377C1.86933 30.3034 2.48873 29.287 3.14365 28.9362C3.59073 28.6963 4.80625 29.1924 5.25625 29.7054C5.91757 30.4606 6.20049 31.5237 6.74654 32.6679Z" fill="white"/>
<path fill-rule="evenodd" clip-rule="evenodd" d="M23.4062 2.6897C22.7636 2.29271 22.1255 1.89797 21.4863 1.50436C22.1255 1.04317 22.7036 0.353929 23.4173 0.178803C24.3819 -0.0577022 25.4781 -0.0441873 26.4672 0.12925C27.4853 0.307755 27.653 1.06964 26.7157 1.56574C25.786 2.05789 24.6969 2.2668 23.4062 2.6897Z" fill="white"/>
<path fill-rule="evenodd" clip-rule="evenodd" d="M3.23372 16.5995C3.17201 18.398 1.90876 20.2123 0.941235 20.0907C0.569244 20.044 0.0261027 19.3863 0.00281687 18.9836C-0.0740263 17.6502 1.43897 15.6506 2.38146 15.7936C2.78256 15.855 3.09517 16.4598 3.23372 16.5995Z" fill="white"/>
<path fill-rule="evenodd" clip-rule="evenodd" d="M8.27815 9.12156C7.95681 8.26733 7.67855 7.86302 7.70125 7.4756C7.71755 7.19405 8.0779 6.82127 8.37945 6.68556C9.44419 6.20692 10.5479 5.81331 11.6371 5.38647C11.7035 5.70463 11.9369 6.20298 11.81 6.31278C10.793 7.1963 9.70674 8.00548 8.27815 9.12156Z" fill="white"/>
</svg>
