<svg width="81" height="81" viewBox="0 0 81 81" fill="none" xmlns="http://www.w3.org/2000/svg">
<path d="M54.6412 6.75H26.3587C14.0737 6.75 6.75 14.0737 6.75 26.3587V54.6075C6.75 66.9263 14.0737 74.25 26.3587 74.25H54.6075C66.8925 74.25 74.2162 66.9263 74.2162 54.6413V26.3587C74.25 14.0737 66.9262 6.75 54.6412 6.75ZM59.1637 34.4925L53.865 39.7912C53.3587 40.2975 52.7175 40.5338 52.0762 40.5338C51.435 40.5338 50.7937 40.2975 50.2875 39.7912C49.3087 38.8125 49.3087 37.1925 50.2875 36.2137L51.165 35.3363H34.02C29.7 35.3363 26.1562 38.8463 26.1562 43.2C26.1562 47.5537 29.6662 51.0638 34.02 51.0638H50.625C52.0087 51.0638 53.1562 52.2113 53.1562 53.595C53.1562 54.9788 52.0087 56.1262 50.625 56.1262H34.02C26.8987 56.1262 21.0937 50.3213 21.0937 43.2C21.0937 36.0788 26.8987 30.2738 34.02 30.2738H51.4012L50.2875 29.1937C49.3087 28.215 49.3087 26.595 50.2875 25.6163C51.2662 24.6375 52.8862 24.6375 53.865 25.6163L59.1637 30.915C60.1425 31.9275 60.1425 33.5138 59.1637 34.4925Z" fill="black"/>
</svg>
