<svg width="38" height="38" viewBox="0 0 38 38" fill="none" xmlns="http://www.w3.org/2000/svg">
<path d="M34.8253 14.6006C31.9595 14.6006 30.7878 12.574 32.2128 10.0881C33.0362 8.6473 32.5453 6.81063 31.1045 5.9873L28.3653 4.4198C27.1145 3.67563 25.4995 4.11897 24.7553 5.3698L24.5812 5.67063C23.1562 8.15647 20.8128 8.15647 19.372 5.67063L19.1978 5.3698C18.4853 4.11897 16.8703 3.67563 15.6195 4.4198L12.8803 5.9873C11.4395 6.81063 10.9487 8.66313 11.772 10.104C13.2128 12.574 12.0412 14.6006 9.17533 14.6006C7.52866 14.6006 6.16699 15.9465 6.16699 17.609V20.3956C6.16699 22.0423 7.51283 23.404 9.17533 23.404C12.0412 23.404 13.2128 25.4306 11.772 27.9165C10.9487 29.3573 11.4395 31.194 12.8803 32.0173L15.6195 33.5848C16.8703 34.329 18.4853 33.8856 19.2295 32.6348L19.4037 32.334C20.8287 29.8481 23.172 29.8481 24.6128 32.334L24.787 32.6348C25.5312 33.8856 27.1462 34.329 28.397 33.5848L31.1362 32.0173C32.577 31.194 33.0678 29.3415 32.2445 27.9165C30.8037 25.4306 31.9753 23.404 34.8412 23.404C36.4878 23.404 37.8495 22.0581 37.8495 20.3956V17.609C37.8337 15.9623 36.4878 14.6006 34.8253 14.6006ZM22.0003 24.1481C19.1662 24.1481 16.8545 21.8365 16.8545 19.0023C16.8545 16.1681 19.1662 13.8565 22.0003 13.8565C24.8345 13.8565 27.1462 16.1681 27.1462 19.0023C27.1462 21.8365 24.8345 24.1481 22.0003 24.1481Z" fill="black"/>
</svg>
