<svg width="89" height="74" viewBox="0 0 89 74" fill="none" xmlns="http://www.w3.org/2000/svg">
<path fill-rule="evenodd" clip-rule="evenodd" d="M32.2944 13.5546C36.6213 13.9718 41.5259 13.6406 45.8783 15.026C55.6122 18.1251 58.3999 27.6049 52.6845 36.145C46.9642 44.6918 34.0079 48.5324 24.5756 44.4779C18.9621 42.0646 16.1901 37.6046 16.3644 31.2951C16.3947 30.2057 16.3683 29.1164 16.3683 27.5248C15.0131 28.58 14.1025 29.5863 12.9667 30.0846C11.9523 30.5301 10.3905 30.8955 9.61793 30.4158C8.80131 29.9068 8.13939 28.2986 8.26864 27.2796C8.75627 23.4204 10.788 20.3292 14.0486 18.1895C16.2772 16.726 18.3873 17.8828 18.635 20.5656C18.7065 21.3502 18.6458 22.1464 18.6458 23.0922C21.7605 20.5461 24.7284 18.1202 28.3219 15.1823C26.5477 15.5223 25.4598 15.9854 24.4444 15.8584C23.3292 15.7206 22.0484 15.2673 21.3072 14.4994C20.9606 14.1418 21.4227 12.435 22.02 11.8351C25.4167 8.42045 29.5547 6.44591 34.4446 6.52603C36.7261 6.56316 37.484 8.35792 35.9711 10.1341C34.7354 11.5899 33.1658 12.7613 32.2944 13.5546Z" fill="black"/>
<path fill-rule="evenodd" clip-rule="evenodd" d="M61.7534 36.1624C68.0416 36.1663 71.1857 40.936 68.2737 46.7209C65.3127 52.6054 60.4218 56.2613 53.5754 56.4802C46.9338 56.6922 44.6523 52.3592 46.7223 46.3643C48.662 40.7465 55.8099 36.1594 61.7534 36.1624Z" fill="black"/>
<path fill-rule="evenodd" clip-rule="evenodd" d="M68.0063 32.5964C62.332 32.5573 57.2756 27.3704 57.2903 21.6041C57.3001 17.3473 60.3012 14.2013 64.3266 14.2277C69.946 14.2658 75.7573 20.0985 75.7289 25.6753C75.7074 29.9692 72.7376 32.6277 68.0063 32.5964Z" fill="black"/>
<path fill-rule="evenodd" clip-rule="evenodd" d="M30.6719 61.5677C28.037 60.8388 25.308 60.3406 22.7936 59.3176C20.3065 58.3055 18.4686 56.3065 18.5097 53.4409C18.5499 50.6438 20.4778 48.9926 22.9708 48.1407C27.8382 46.4768 32.7135 46.6224 37.3155 48.9448C39.8751 50.2373 41.9401 52.2558 41.3252 55.5405C40.7025 58.876 37.9079 59.9664 35.1085 60.7685C33.7563 61.1564 32.2562 61.0333 30.8227 61.1427C30.7728 61.2844 30.7228 61.425 30.6719 61.5677Z" fill="black"/>
<path fill-rule="evenodd" clip-rule="evenodd" d="M81.5961 39.3425C87.2479 39.3083 89.7418 43.3414 87.337 47.8884C85.2092 51.9136 79.8796 54.3591 76.1226 53.0343C72.4909 51.7534 71.1357 48.5733 72.8483 45.1244C74.7214 41.3542 77.9429 39.6219 81.5961 39.3425Z" fill="black"/>
<path fill-rule="evenodd" clip-rule="evenodd" d="M40.5311 73.8015C38.2742 73.1694 36.5048 72.9379 34.991 72.1934C31.6746 70.5608 31.4572 66.8726 34.5357 64.7984C38.2399 62.3032 42.3563 62.1224 46.3895 63.6944C49.8802 65.0544 50.3433 68.9009 47.211 71.018C45.1792 72.3898 42.6089 72.9682 40.5311 73.8015Z" fill="black"/>
<path fill-rule="evenodd" clip-rule="evenodd" d="M51.485 14.5364C48.851 13.704 45.891 13.1451 43.2972 11.8506C40.3734 10.3909 40.5683 7.881 43.3863 6.23768C47.0288 4.11464 55.7786 4.57286 59.0999 7.06129C61.5243 8.8756 61.4558 11.3572 58.674 12.5921C56.5717 13.5252 54.1914 13.8339 51.485 14.5364Z" fill="black"/>
<path fill-rule="evenodd" clip-rule="evenodd" d="M17.7586 43.6952C17.9769 46.3439 16.9321 48.4561 14.5293 49.4664C11.9815 50.5362 9.84398 49.185 8.28906 47.2749C6.29647 44.8266 4.99712 42.0118 5.93222 38.7271C7.16401 34.4009 11.4273 33.1132 14.4607 36.4116C16.2213 38.3246 17.1867 40.9664 18.5096 43.279C18.2599 43.4177 18.0092 43.5565 17.7586 43.6952Z" fill="black"/>
<path fill-rule="evenodd" clip-rule="evenodd" d="M69.103 3.26953C71.3531 4.3755 73.3653 4.9959 74.8625 6.2367C75.7584 6.97825 76.4732 8.90784 76.1236 9.90145C75.7662 10.9185 73.9753 12.0948 72.8699 12.0391C70.9125 11.9414 68.7633 11.3142 67.1516 10.2307C66.0285 9.47645 64.8525 7.33876 65.1825 6.27578C65.5604 5.06038 67.5785 4.35401 69.103 3.26953Z" fill="black"/>
<path fill-rule="evenodd" clip-rule="evenodd" d="M11.4725 56.6797C10.5276 58.0163 9.89407 59.8599 8.81895 60.1657C7.76146 60.4656 5.85698 59.5345 5.05211 58.5507C4.02595 57.2952 3.26514 55.4438 3.26709 53.8513C3.26905 52.5773 4.31088 50.8138 5.41244 50.2051C6.16444 49.7889 8.20893 50.6496 8.96583 51.5397C10.0782 52.8498 10.554 54.6944 11.4725 56.6797Z" fill="black"/>
<path fill-rule="evenodd" clip-rule="evenodd" d="M39.4942 4.6667C38.4132 3.97791 37.34 3.29303 36.2649 2.6101C37.34 1.80993 38.3123 0.614077 39.5128 0.310228C41.1353 -0.100115 42.979 -0.0766662 44.6426 0.224252C46.3552 0.533963 46.6372 1.85585 45.0607 2.7166C43.497 3.5705 41.665 3.93297 39.4942 4.6667Z" fill="black"/>
<path fill-rule="evenodd" clip-rule="evenodd" d="M5.5641 28.8006C5.46031 31.9212 3.33552 35.0691 1.70815 34.858C1.08246 34.777 0.168905 33.6358 0.129738 32.9372C0.000488326 30.6237 2.54533 27.1543 4.1306 27.4025C4.80524 27.509 5.33106 28.5583 5.5641 28.8006Z" fill="black"/>
<path fill-rule="evenodd" clip-rule="evenodd" d="M14.0485 15.8262C13.508 14.3441 13.0399 13.6426 13.0781 12.9704C13.1055 12.4819 13.7116 11.8351 14.2188 11.5997C16.0097 10.7692 17.8662 10.0863 19.6982 9.3457C19.8099 9.89771 20.2025 10.7624 19.9891 10.9529C18.2785 12.4858 16.4513 13.8898 14.0485 15.8262Z" fill="black"/>
</svg>
